{
  "accessors": [
    {
      "bufferView": 2,
      "componentType": 5126,
      "count": 1596,
      "max": [
        0.9945219159126282,
        1.0,
        1.5987287759780884
      ],
      "min": [
        -0.994521975517273,
        -1.0,
        -1.5987287759780884
      ],
      "type": "VEC3"
    },
    {
      "bufferView": 2,
      "byteOffset": 19152,
      "componentType": 5126,
      "count": 1596,
      "max": [
        0.994521975517273,
        1.0,
        1.0
      ],
      "min": [
        -1.0,
        -1.0,
        -1.0
      ],
      "type": "VEC3"
    },
    {
      "bufferView": 1,
      "componentType": 5126,
      "count": 1596,
      "max": [
        0.9947133660316467,
        0.9946205615997314
      ],
      "min": [
        0.01651681959629059,
        0.005286574363708496
      ],
      "type": "VEC2"
    },
    {
      "bufferView": 0,
      "componentType": 5125,
      "count": 4488,
      "type": "SCALAR"
    },
    {
      "bufferView": 2,
      "byteOffset": 38304,
      "componentType": 5126,
      "count": 1596,
      "max": [
        0.9945219159126282,
        1.0,
        1.5987287759780884
      ],
      "min": [
        -0.994521975517273,
        -1.0,
        -1.5987287759780884
      ],
      "type": "VEC3"
    },
    {
      "bufferView": 2,
      "byteOffset": 57456,
      "componentType": 5126,
      "count": 1596,
      "max": [
        0.994521975517273,
        1.0,
        1.0
      ],
      "min": [
        -1.0,
        -1.0,
        -1.0
      ],
      "type": "VEC3"
    },
    {
      "bufferView": 1,
      "byteOffset": 12768,
      "componentType": 5126,
      "count": 1596,
      "max": [
        0.9947133660316467,
        0.9946205615997314
      ],
      "min": [
        0.01651681959629059,
        0.005286574363708496
      ],
      "type": "VEC2"
    },
    {
      "bufferView": 0,
      "byteOffset": 17952,
      "componentType": 5125,
      "count": 4488,
      "type": "SCALAR"
    },
    {
      "bufferView": 2,
      "byteOffset": 76608,
      "componentType": 5126,
      "count": 1596,
      "max": [
        0.9945219159126282,
        1.0,
        1.5987287759780884
      ],
      "min": [
        -0.994521975517273,
        -1.0,
        -1.5987287759780884
      ],
      "type": "VEC3"
    },
    {
      "bufferView": 2,
      "byteOffset": 95760,
      "componentType": 5126,
      "count": 1596,
      "max": [
        0.994521975517273,
        1.0,
        1.0
      ],
      "min": [
        -1.0,
        -1.0,
        -1.0
      ],
      "type": "VEC3"
    },
    {
      "bufferView": 1,
      "byteOffset": 25536,
      "componentType": 5126,
      "count": 1596,
      "max": [
        0.9947133660316467,
        0.9946205615997314
      ],
      "min": [
        0.01651681959629059,
        0.005286574363708496
      ],
      "type": "VEC2"
    },
    {
      "bufferView": 0,
      "byteOffset": 35904,
      "componentType": 5125,
      "count": 4488,
      "type": "SCALAR"
    },
    {
      "bufferView": 2,
      "byteOffset": 114912,
      "componentType": 5126,
      "count": 1596,
      "max": [
        0.9945219159126282,
        1.0,
        1.5987287759780884
      ],
      "min": [
        -0.994521975517273,
        -1.0,
        -1.5987287759780884
      ],
      "type": "VEC3"
    },
    {
      "bufferView": 2,
      "byteOffset": 134064,
      "componentType": 5126,
      "count": 1596,
      "max": [
        0.994521975517273,
        1.0,
        1.0
      ],
      "min": [
        -1.0,
        -1.0,
        -1.0
      ],
      "type": "VEC3"
    },
    {
      "bufferView": 1,
      "byteOffset": 38304,
      "componentType": 5126,
      "count": 1596,
      "max": [
        0.9947133660316467,
        0.9946205615997314
      ],
      "min": [
        0.01651681959629059,
        0.005286574363708496
      ],
      "type": "VEC2"
    },
    {
      "bufferView": 0,
      "byteOffset": 53856,
      "componentType": 5125,
      "count": 4488,
      "type": "SCALAR"
    },
    {
      "bufferView": 2,
      "byteOffset": 153216,
      "componentType": 5126,
      "count": 10175,
      "max": [
        13.371451377868652,
        5.809444904327393,
        5.768599510192871
      ],
      "min": [
        -10.042943000793457,
        0.12415282428264618,
        -5.768599510192871
      ],
      "type": "VEC3"
    },
    {
      "bufferView": 2,
      "byteOffset": 275316,
      "componentType": 5126,
      "count": 10175,
      "max": [
        1.0,
        1.0,
        1.0
      ],
      "min": [
        -1.0,
        -1.0,
        -1.0
      ],
      "type": "VEC3"
    },
    {
      "bufferView": 1,
      "byteOffset": 51072,
      "componentType": 5126,
      "count": 10175,
      "max": [
        0.9931609630584717,
        0.9934391379356384
      ],
      "min": [
        0.005286216735839844,
        0.005286216735839844
      ],
      "type": "VEC2"
    },
    {
      "bufferView": 0,
      "byteOffset": 71808,
      "componentType": 5125,
      "count": 27858,
      "type": "SCALAR"
    }
  ],
  "asset": {
    "extras": {
      "author": "Tryc (https://sketchfab.com/Tryc)",
      "license": "SKETCHFAB Standard (https://sketchfab.com/licenses)",
      "source": "https://sketchfab.com/3d-models/low-poly-car-fortnite-fanmade-whiplash-d06bc32f59bb493c8e2b7628e5aeab12",
      "title": "Low Poly Car - Fortnite fanmade Whiplash"
    },
    "generator": "Sketchfab-15.55.0",
    "version": "2.0"
  },
  "bufferViews": [
    {
      "buffer": 0,
      "byteLength": 183240,
      "name": "floatBufferViews",
      "target": 34963
    },
    {
      "buffer": 0,
      "byteLength": 132472,
      "byteOffset": 183240,
      "byteStride": 8,
      "name": "floatBufferViews",
      "target": 34962
    },
    {
      "buffer": 0,
      "byteLength": 397416,
      "byteOffset": 315712,
      "byteStride": 12,
      "name": "floatBufferViews",
      "target": 34962
    }
  ],
  "buffers": [
    {
      "byteLength": 713128,
      "uri": "scene.bin"
    }
  ],
  "images": [
    {
      "uri": "textures/Scene_-_Root_baseColor.png"
    },
    {
      "uri": "textures/Scene_-_Root_metallicRoughness.png"
    },
    {
      "uri": "textures/Scene_-_Root_emissive.png"
    }
  ],
  "materials": [
    {
      "doubleSided": true,
      "emissiveFactor": [
        1.0,
        1.0,
        1.0
      ],
      "emissiveTexture": {
        "index": 2
      },
      "name": "Scene_-_Root",
      "pbrMetallicRoughness": {
        "baseColorTexture": {
          "index": 0
        },
        "metallicRoughnessTexture": {
          "index": 1
        },
        "roughnessFactor": 0.2125087364702771
      }
    }
  ],
  "meshes": [
    {
      "name": "Cylinder.001__0",
      "primitives": [
        {
          "attributes": {
            "NORMAL": 1,
            "POSITION": 0,
            "TEXCOORD_0": 2
          },
          "indices": 3,
          "material": 0,
          "mode": 4
        }
      ]
    },
    {
      "name": "Cylinder.002__0",
      "primitives": [
        {
          "attributes": {
            "NORMAL": 5,
            "POSITION": 4,
            "TEXCOORD_0": 6
          },
          "indices": 7,
          "material": 0,
          "mode": 4
        }
      ]
    },
    {
      "name": "Cylinder.003__0",
      "primitives": [
        {
          "attributes": {
            "NORMAL": 9,
            "POSITION": 8,
            "TEXCOORD_0": 10
          },
          "indices": 11,
          "material": 0,
          "mode": 4
        }
      ]
    },
    {
      "name": "Cylinder.005__0",
      "primitives": [
        {
          "attributes": {
            "NORMAL": 13,
            "POSITION": 12,
            "TEXCOORD_0": 14
          },
          "indices": 15,
          "material": 0,
          "mode": 4
        }
      ]
    },
    {
      "name": "Plane.001__0",
      "primitives": [
        {
          "attributes": {
            "NORMAL": 17,
            "POSITION": 16,
            "TEXCOORD_0": 18
          },
          "indices": 19,
          "material": 0,
          "mode": 4
        }
      ]
    }
  ],
  "nodes": [
    {
      "children": [
        1
      ],
      "matrix": [
        1.0,
        0.0,
        0.0,
        0.0,
        0.0,
        2.220446049250313e-16,
        -1.0,
        0.0,
        0.0,
        1.0,
        2.220446049250313e-16,
        0.0,
        0.0,
        0.0,
        0.0,
        1.0
      ],
      "name": "Sketchfab_model"
    },
    {
      "children": [
        2
      ],
      "matrix": [
        0.009999999776482582,
        0.0,
        0.0,
        0.0,
        0.0,
        0.0,
        0.009999999776482582,
        0.0,
        0.0,
        -0.009999999776482582,
        0.0,
        0.0,
        0.0,
        0.0,
        0.0,
        1.0
      ],
      "name": "Whiplash.fbx"
    },
    {
      "children": [
        3,
        5,
        7,
        9,
        11
      ],
      "name": "RootNode"
    },
    {
      "children": [
        4
      ],
      "matrix": [
        36.18606948852539,
        0.0,
        0.0,
        0.0,
        0.0,
        36.186069488525355,
        1.5817433339838133e-06,
        0.0,
        0.0,
        -5.728643611159264e-07,
        13.1056089401245,
        0.0,
        224.65972900390625,
        26.926624298095703,
        -109.75625610351563,
        1.0
      ],
      "name": "Cylinder.001"
    },
    {
      "mesh": 0,
      "name": "Cylinder.001__0"
    },
    {
      "children": [
        6
      ],
      "matrix": [
        43.06889724731445,
        0.0,
        0.0,
        0.0,
        0.0,
        43.06889724731441,
        1.8826012906589802e-06,
        0.0,
        0.0,
        -6.818270154516407e-07,
        15.598383903503402,
        0.0,
        -41.70094680786133,
        33.122676849365234,
        115.19845581054688,
        1.0
      ],
      "name": "Cylinder.002"
    },
    {
      "mesh": 1,
      "name": "Cylinder.002__0"
    },
    {
      "children": [
        8
      ],
      "matrix": [
        36.18606948852539,
        0.0,
        0.0,
        0.0,
        0.0,
        36.186069488525355,
        1.5817433339838133e-06,
        0.0,
        0.0,
        -5.728643611159264e-07,
        13.1056089401245,
        0.0,
        224.65972900390625,
        26.926624298095703,
        110.29383850097656,
        1.0
      ],
      "name": "Cylinder.003"
    },
    {
      "mesh": 2,
      "name": "Cylinder.003__0"
    },
    {
      "children": [
        10
      ],
      "matrix": [
        43.06889724731445,
        0.0,
        0.0,
        0.0,
        0.0,
        43.06889724731441,
        1.8826012906589802e-06,
        0.0,
        0.0,
        -6.818270154516407e-07,
        15.598383903503402,
        0.0,
        -41.70094680786133,
        33.122676849365234,
        -114.19586181640625,
        1.0
      ],
      "name": "Cylinder.005"
    },
    {
      "mesh": 3,
      "name": "Cylinder.005__0"
    },
    {
      "children": [
        12
      ],
      "matrix": [
        24.190963745116072,
        7.397039121863526e-07,
        -7.305467969243521e-06,
        0.0,
        -7.397035928541607e-07,
        24.190963745117152,
        1.0574208671238722e-06,
        0.0,
        7.305468001577004e-06,
        -1.0574206437395481e-06,
        24.19096374511606,
        0.0,
        59.320068359375,
        -5.079540729522705,
        0.0,
        1.0
      ],
      "name": "Plane.001"
    },
    {
      "mesh": 4,
      "name": "Plane.001__0"
    }
  ],
  "samplers": [
    {
      "magFilter": 9729,
      "minFilter": 9987,
      "wrapS": 10497,
      "wrapT": 10497
    }
  ],
  "scene": 0,
  "scenes": [
    {
      "name": "Sketchfab_Scene",
      "nodes": [
        0
      ]
    }
  ],
  "textures": [
    {
      "sampler": 0,
      "source": 0
    },
    {
      "sampler": 0,
      "source": 1
    },
    {
      "sampler": 0,
      "source": 2
    }
  ]
}
